<?xml version="1.0" standalone="no"?>
<!DOCTYPE svg PUBLIC "-//W3C//DTD SVG 20010904//EN"
 "http://www.w3.org/TR/2001/REC-SVG-20010904/DTD/svg10.dtd">
<svg version="1.0" xmlns="http://www.w3.org/2000/svg"
 width="548.000000pt" height="548.000000pt" viewBox="0 0 548.000000 548.000000"
 preserveAspectRatio="xMidYMid meet">
<metadata>
Created by potrace 1.14, written by Peter Selinger 2001-2017
</metadata>
<g transform="translate(0.000000,548.000000) scale(0.100000,-0.100000)"
fill="#000000" stroke="none">
<path d="M3545 4772 c-237 -22 -432 -147 -546 -351 -21 -37 -47 -100 -54 -131
-21 -84 -26 -137 -27 -279 l-1 -125 -76 -58 c-42 -32 -128 -97 -191 -145 -63
-48 -117 -90 -120 -93 -3 -3 -93 -73 -200 -155 -107 -81 -197 -151 -200 -154
-3 -3 -59 -47 -125 -97 -123 -93 -702 -536 -720 -551 -15 -13 -131 -103 -227
-176 -120 -92 -321 -246 -338 -260 -8 -7 -64 -50 -125 -97 -60 -46 -179 -137
-263 -202 -84 -65 -161 -124 -172 -130 -11 -7 -20 -16 -20 -21 0 -8 96 -141
121 -167 8 -8 34 -42 58 -75 24 -33 59 -79 78 -102 l34 -42 97 75 c53 41 112
87 131 102 19 15 46 36 61 47 61 45 185 140 190 146 3 3 44 35 91 70 l87 65
502 -1 503 0 43 -100 c59 -137 68 -160 99 -235 15 -36 33 -78 40 -95 8 -16 35
-82 60 -145 26 -63 55 -133 65 -155 9 -22 34 -84 55 -138 31 -78 42 -97 59
-98 29 -1 315 -1 348 0 l27 1 -20 47 c-11 27 -27 62 -34 78 -15 31 -56 130
-148 355 -31 74 -87 213 -126 308 -39 95 -71 174 -71 176 0 1 74 3 164 3 l165
-1 47 -110 c25 -61 52 -124 59 -141 85 -200 258 -619 279 -675 l17 -45 190 1
c105 1 193 4 196 8 3 3 -1 20 -10 38 -32 70 -48 109 -117 278 -40 96 -78 189
-85 205 -7 17 -34 82 -60 145 -26 63 -53 129 -61 147 -8 17 -14 34 -14 37 0 3
-9 28 -21 54 -54 123 -52 111 -23 123 15 5 34 11 43 13 28 5 97 34 181 74 400
194 712 606 785 1037 22 125 23 148 25 515 l1 296 237 59 c252 63 244 61 282
70 14 3 66 16 115 28 l90 23 1 122 1 123 -179 119 -178 120 -261 2 -260 1 -32
34 c-46 49 -124 107 -184 137 -87 44 -249 77 -338 68z m100 -495 c93 -36 134
-117 111 -218 -12 -56 -53 -98 -115 -119 -48 -16 -59 -17 -100 -4 -61 18 -92
43 -115 90 -28 59 -24 127 11 184 40 65 135 95 208 67z"/>
</g>
</svg>
