<?xml version="1.0" standalone="no"?>
<!DOCTYPE svg PUBLIC "-//W3C//DTD SVG 20010904//EN"
 "http://www.w3.org/TR/2001/REC-SVG-20010904/DTD/svg10.dtd">
<svg version="1.0" xmlns="http://www.w3.org/2000/svg"
 width="346.000000pt" height="346.000000pt" viewBox="0 0 346.000000 346.000000"
 preserveAspectRatio="xMidYMid meet">
<metadata>
Created by potrace 1.14, written by Peter Selinger 2001-2017
</metadata>
<g transform="translate(0.000000,346.000000) scale(0.100000,-0.100000)"
fill="#000000" stroke="none">
<path d="M1500 3305 c-540 -82 -991 -421 -1220 -919 -188 -409 -188 -903 0
-1312 264 -574 823 -934 1450 -934 627 0 1186 360 1450 934 188 409 188 903 0
1312 -234 508 -698 850 -1253 924 -104 13 -321 11 -427 -5z m425 -136 c208
-25 462 -125 640 -250 115 -82 272 -239 354 -354 299 -425 345 -999 117 -1470
-71 -146 -159 -268 -281 -390 -278 -278 -633 -425 -1025 -425 -300 0 -596 93
-835 261 -115 82 -272 239 -354 354 -249 354 -326 816 -205 1240 111 386 386
715 749 895 130 64 316 123 437 138 105 13 298 14 403 1z"/>
<path d="M1347 2650 c-129 -54 -287 -191 -376 -327 -200 -305 -184 -726 38
-1006 98 -124 254 -222 414 -262 l67 -17 0 -213 c0 -204 1 -213 23 -246 36
-53 67 -64 201 -67 138 -4 192 7 233 50 l28 29 5 225 5 225 73 25 c372 125
586 440 569 839 -13 313 -156 557 -397 679 -82 42 -118 53 -207 66 -136 19
-276 -22 -373 -108 l-45 -40 -46 65 c-26 36 -56 71 -67 79 -34 24 -93 26 -145
4z m114 -186 l42 -66 -34 -25 c-129 -98 -226 -248 -254 -397 -19 -98 -19 -144
0 -242 36 -189 160 -334 325 -380 30 -9 63 -18 73 -20 16 -5 17 21 17 438 0
460 3 497 44 576 26 50 85 111 130 135 35 19 57 22 156 22 112 0 117 -1 190
-37 228 -112 356 -361 337 -652 -13 -195 -68 -319 -196 -447 -69 -68 -103 -93
-171 -126 -81 -40 -160 -65 -242 -78 l-38 -6 0 -252 0 -252 -105 0 -105 0 0
253 c0 138 -3 252 -7 252 -36 0 -152 26 -212 47 -105 36 -186 87 -261 162
-107 109 -164 243 -176 415 -6 89 7 230 26 280 63 166 144 282 258 370 43 32
131 86 158 96 1 0 21 -30 45 -66z m24 -922 c-11 -11 -76 64 -100 114 -74 157
-46 373 67 509 l33 39 3 -328 c1 -181 0 -331 -3 -334z"/>
<path d="M1887 2310 c-43 -50 -47 -102 -47 -555 0 -345 2 -425 13 -425 7 0 38
7 68 16 214 63 340 253 341 518 0 168 -48 303 -143 398 -57 57 -101 78 -163
78 -37 0 -48 -5 -69 -30z m143 -157 c139 -158 121 -490 -33 -612 -16 -13 -17
5 -17 318 0 188 4 331 9 331 5 0 24 -17 41 -37z"/>
</g>
</svg>
